<svg xmlns="http://www.w3.org/2000/svg" xmlns:xlink="http://www.w3.org/1999/xlink" width="700" zoomAndPan="magnify" viewBox="0 0 525 149.999998" height="200" preserveAspectRatio="xMidYMid meet" version="1.0"><defs><g/></defs><g fill="#000000" fill-opacity="1"><g transform="translate(0.000004375, 148.698387)"><g><path d="M 128.796875 0 L 128.796875 -63.65625 C 128.796875 -70.0625 127.300781 -75.253906 124.3125 -79.234375 C 121.320312 -83.222656 117.332031 -85.21875 112.34375 -85.21875 C 107.21875 -85.21875 102.984375 -83.082031 99.640625 -78.8125 C 96.296875 -74.539062 94.625 -69.203125 94.625 -62.796875 L 94.625 0 L 66.859375 0 L 66.859375 -63.21875 C 66.859375 -67.488281 66.570312 -70.976562 66 -73.6875 C 65.425781 -76.394531 64.460938 -78.53125 63.109375 -80.09375 C 61.765625 -81.664062 60.023438 -82.769531 57.890625 -83.40625 C 55.753906 -84.050781 53.1875 -84.375 50.1875 -84.375 C 38.945312 -84.375 33.328125 -77.535156 33.328125 -63.859375 L 33.328125 0 L 5.546875 0 L 5.546875 -105.09375 L 31.609375 -105.09375 L 31.609375 -89.703125 C 35.171875 -96.679688 39.441406 -101.453125 44.421875 -104.015625 C 49.410156 -106.578125 55.394531 -107.859375 62.375 -107.859375 C 65.925781 -107.859375 69.09375 -107.570312 71.875 -107 C 74.65625 -106.4375 77.144531 -105.476562 79.34375 -104.125 C 81.550781 -102.769531 83.648438 -101.023438 85.640625 -98.890625 C 87.640625 -96.753906 89.632812 -94.191406 91.625 -91.203125 C 94.476562 -97.046875 98.253906 -101.28125 102.953125 -103.90625 C 107.648438 -106.539062 113.347656 -107.859375 120.046875 -107.859375 C 125.304688 -107.859375 130.144531 -106.96875 134.5625 -105.1875 C 138.976562 -103.414062 142.75 -100.925781 145.875 -97.71875 C 149.007812 -94.507812 151.46875 -90.769531 153.25 -86.5 C 155.03125 -82.226562 155.921875 -77.671875 155.921875 -72.828125 L 155.921875 0 Z M 128.796875 0 "/></g></g></g><g fill="#000000" fill-opacity="1"><g transform="translate(161.040078, 148.698387)"><g><path d="M 74.75 -62.796875 C 74.613281 -66.640625 73.9375 -70.019531 72.71875 -72.9375 C 71.507812 -75.863281 69.910156 -78.285156 67.921875 -80.203125 C 65.929688 -82.128906 63.65625 -83.550781 61.09375 -84.46875 C 58.53125 -85.394531 55.894531 -85.859375 53.1875 -85.859375 C 47.632812 -85.859375 42.828125 -83.828125 38.765625 -79.765625 C 34.710938 -75.710938 32.398438 -70.054688 31.828125 -62.796875 Z M 30.96875 -45.28125 C 31.394531 -37.3125 33.707031 -30.972656 37.90625 -26.265625 C 42.113281 -21.566406 47.632812 -19.21875 54.46875 -19.21875 C 59.019531 -19.21875 63.039062 -20.25 66.53125 -22.3125 C 70.019531 -24.382812 72.265625 -27.269531 73.265625 -30.96875 L 101.890625 -30.96875 C 98.609375 -20.144531 92.910156 -11.8125 84.796875 -5.96875 C 76.679688 -0.132812 67 2.78125 55.75 2.78125 C 20.71875 2.78125 3.203125 -16.300781 3.203125 -54.46875 C 3.203125 -62.582031 4.335938 -69.914062 6.609375 -76.46875 C 8.890625 -83.019531 12.203125 -88.644531 16.546875 -93.34375 C 20.890625 -98.039062 26.191406 -101.632812 32.453125 -104.125 C 38.722656 -106.613281 45.921875 -107.859375 54.046875 -107.859375 C 70.273438 -107.859375 82.550781 -102.660156 90.875 -92.265625 C 99.207031 -81.878906 103.375 -66.21875 103.375 -45.28125 Z M 30.96875 -45.28125 "/></g></g></g><g fill="#000000" fill-opacity="1"><g transform="translate(268.471328, 148.698387)"><g><path d="M 55.328125 -19.859375 C 62.015625 -19.859375 67.597656 -22.632812 72.078125 -28.1875 C 76.566406 -33.75 78.8125 -41.015625 78.8125 -49.984375 C 78.8125 -72.765625 71.050781 -84.15625 55.53125 -84.15625 C 39.582031 -84.15625 31.609375 -73.332031 31.609375 -51.6875 C 31.609375 -42.289062 33.816406 -34.632812 38.234375 -28.71875 C 42.648438 -22.8125 48.347656 -19.859375 55.328125 -19.859375 Z M 78.390625 0 L 78.171875 -12.8125 C 71.765625 -2.414062 62.007812 2.78125 48.90625 2.78125 C 42.21875 2.78125 36.097656 1.5 30.546875 -1.0625 C 24.992188 -3.625 20.222656 -7.328125 16.234375 -12.171875 C 12.242188 -17.015625 9.109375 -22.925781 6.828125 -29.90625 C 4.554688 -36.882812 3.421875 -44.785156 3.421875 -53.609375 C 3.421875 -61.585938 4.378906 -68.882812 6.296875 -75.5 C 8.222656 -82.125 11.035156 -87.859375 14.734375 -92.703125 C 18.441406 -97.546875 22.960938 -101.28125 28.296875 -103.90625 C 33.640625 -106.539062 39.726562 -107.859375 46.5625 -107.859375 C 59.519531 -107.859375 69.914062 -102.378906 77.75 -91.421875 L 77.75 -143.53125 L 105.09375 -143.53125 L 105.09375 0 Z M 78.390625 0 "/></g></g></g><g fill="#000000" fill-opacity="1"><g transform="translate(380.174214, 148.698387)"><g><path d="M 6.1875 0 L 6.1875 -105.09375 L 33.96875 -105.09375 L 33.96875 0 Z M 6.1875 -117.6875 L 6.1875 -143.53125 L 33.96875 -143.53125 L 33.96875 -117.6875 Z M 6.1875 -117.6875 "/></g></g></g><g fill="#000000" fill-opacity="1"><g transform="translate(421.181766, 148.698387)"><g><path d="M 69.421875 -51.46875 C 67.992188 -50.050781 65.925781 -48.914062 63.21875 -48.0625 C 60.519531 -47.207031 56.601562 -46.28125 51.46875 -45.28125 C 43.5 -43.71875 38.019531 -41.722656 35.03125 -39.296875 C 32.039062 -36.878906 30.546875 -33.390625 30.546875 -28.828125 C 30.546875 -21.003906 35.03125 -17.09375 44 -17.09375 C 47.5625 -17.09375 50.875 -17.695312 53.9375 -18.90625 C 57 -20.113281 59.628906 -21.75 61.828125 -23.8125 C 64.035156 -25.875 65.816406 -28.296875 67.171875 -31.078125 C 68.523438 -33.859375 69.203125 -36.8125 69.203125 -39.9375 Z M 71.34375 0 C 70.488281 -2.707031 69.914062 -5.835938 69.625 -9.390625 C 66.351562 -5.691406 62.007812 -2.738281 56.59375 -0.53125 C 51.1875 1.675781 44.925781 2.78125 37.8125 2.78125 C 25.707031 2.78125 16.84375 0.109375 11.21875 -5.234375 C 5.59375 -10.578125 2.78125 -17.519531 2.78125 -26.0625 C 2.78125 -33.601562 3.988281 -39.613281 6.40625 -44.09375 C 8.820312 -48.582031 12.164062 -52.109375 16.4375 -54.671875 C 20.71875 -57.242188 25.8125 -59.132812 31.71875 -60.34375 C 37.625 -61.550781 44.066406 -62.65625 51.046875 -63.65625 C 58.023438 -64.644531 62.722656 -65.957031 65.140625 -67.59375 C 67.566406 -69.238281 68.78125 -71.910156 68.78125 -75.609375 C 68.78125 -79.023438 67.175781 -81.691406 63.96875 -83.609375 C 60.769531 -85.535156 56.460938 -86.5 51.046875 -86.5 C 44.640625 -86.5 40.046875 -85.078125 37.265625 -82.234375 C 34.492188 -79.390625 32.75 -75.613281 32.03125 -70.90625 L 6.1875 -70.90625 C 6.332031 -76.320312 7.222656 -81.304688 8.859375 -85.859375 C 10.503906 -90.421875 13.140625 -94.335938 16.765625 -97.609375 C 20.398438 -100.890625 25.132812 -103.414062 30.96875 -105.1875 C 36.8125 -106.96875 43.929688 -107.859375 52.328125 -107.859375 C 60.585938 -107.859375 67.597656 -106.929688 73.359375 -105.078125 C 79.128906 -103.234375 83.757812 -100.566406 87.25 -97.078125 C 90.738281 -93.585938 93.265625 -89.242188 94.828125 -84.046875 C 96.398438 -78.847656 97.1875 -72.972656 97.1875 -66.421875 L 97.1875 0 Z M 71.34375 0 "/></g></g></g></svg>